<?xml version="1.0" encoding="UTF-8" standalone="no"?>
<svg
   xmlns:dc="http://purl.org/dc/elements/1.1/"
   xmlns:cc="http://creativecommons.org/ns#"
   xmlns:rdf="http://www.w3.org/1999/02/22-rdf-syntax-ns#"
   xmlns:svg="http://www.w3.org/2000/svg"
   xmlns="http://www.w3.org/2000/svg"
   xmlns:sodipodi="http://sodipodi.sourceforge.net/DTD/sodipodi-0.dtd"
   xmlns:inkscape="http://www.inkscape.org/namespaces/inkscape"
   inkscape:export-ydpi="299.15558"
   inkscape:export-xdpi="299.15558"
   inkscape:export-filename="/Users/palazzo/Documents/ensino/tau0006/assets/as_comp_neg.png"
   inkscape:version="1.0 (4035a4f, 2020-05-01)"
   sodipodi:docname="as_comp_neg.svg"
   id="svg72"
   version="1.2"
   viewBox="0 0 317.48033 25.51181"
   height="9mm"
   width="112mm">
  <metadata
     id="metadata76">
    <rdf:RDF>
      <cc:Work
         rdf:about="">
        <dc:format>image/svg+xml</dc:format>
        <dc:type
           rdf:resource="http://purl.org/dc/dcmitype/StillImage" />
        <dc:title></dc:title>
      </cc:Work>
    </rdf:RDF>
  </metadata>
  <sodipodi:namedview
     inkscape:current-layer="svg72"
     inkscape:window-maximized="0"
     inkscape:window-y="0"
     inkscape:window-x="0"
     inkscape:cy="17.007813"
     inkscape:cx="195.05979"
     inkscape:zoom="2.1336676"
     units="mm"
     fit-margin-bottom="0"
     fit-margin-right="3"
     fit-margin-left="3"
     fit-margin-top="0"
     showgrid="false"
     id="namedview74"
     inkscape:window-height="800"
     inkscape:window-width="1280"
     inkscape:pageshadow="2"
     inkscape:pageopacity="0"
     guidetolerance="10"
     gridtolerance="10"
     objecttolerance="10"
     borderopacity="1"
     bordercolor="#666666"
     pagecolor="#ffffff" />
  <defs
     id="defs13">
    <clipPath
       id="clip1">
      <path
         id="path10"
         d="M 0,0 H 314.64844 V 42.519531 H 0 Z m 0,0" />
    </clipPath>
  </defs>
  <path
     style="fill:#ffffff;fill-opacity:1;fill-rule:nonzero;stroke:none"
     d="m 51.660187,9.277344 c -2.578125,1.855469 -5.390625,3.464844 -8.425781,4.777344 -1.5,0.648437 -3.117187,1.097656 -4.820313,1.308594 -1.207031,0.152343 -2.441406,0.226562 -3.691406,0.226562 v 9.921875 H 59.527375 V 3.59375 l -7.867188,5.683594"
     id="path19" />
  <path
     style="fill:#ffffff;fill-opacity:1;fill-rule:nonzero;stroke:none"
     d="m 16.371125,9.277344 c 2.578125,1.855469 5.390625,3.464844 8.425781,4.777344 1.5,0.648437 3.113281,1.097656 4.816406,1.308594 1.210938,0.152343 2.441407,0.226562 3.691407,0.226562 v 9.921875 H 8.503937 V 3.59375 l 7.867188,5.683594"
     id="path21" />
  <path
     style="fill:#ffffff;fill-opacity:1;fill-rule:nonzero;stroke:none"
     d="m 34.722687,0 v 14.175782 c 1.191406,0 2.367188,-0.07422 3.515625,-0.21875 1.566407,-0.195313 3.054688,-0.605469 4.433594,-1.203126 2.9375,-1.269531 5.664063,-2.828124 8.15625,-4.625 L 59.527375,1.84375 V 0 H 34.722687"
     id="path23" />
  <path
     style="fill:#ffffff;fill-opacity:1;fill-rule:nonzero;stroke:none"
     d="m 33.304719,0 v 14.175782 c -1.1875,0 -2.363282,-0.07422 -3.515626,-0.21875 -1.566406,-0.195313 -3.050781,-0.605469 -4.429687,-1.203126 -2.9375,-1.269531 -5.664063,-2.828124 -8.15625,-4.625 L 8.503937,1.84375 V 0 h 24.800782"
     id="path25" />
  <path
     style="fill:#ffffff;fill-opacity:1;fill-rule:nonzero;stroke:none"
     d="M 69.44925,14.492188 V 5.671875 h 3.242187 v 8.574219 c 0,2.230469 1.035156,3.265625 2.859375,3.265625 1.867188,0 2.796875,-1.074219 2.796875,-3.367187 V 5.671875 h 3.265625 v 8.675781 c 0,3.914063 -2.332031,5.699219 -6.125,5.699219 -3.628906,0 -6.039062,-1.644531 -6.039062,-5.554687"
     id="path27" />
  <path
     style="fill:#ffffff;fill-opacity:1;fill-rule:nonzero;stroke:none"
     d="m 91.226593,19.84375 v -6.367187 c 0,-1.519531 -0.425781,-2.292969 -1.679687,-2.292969 -1.300781,0 -2.027344,1.117188 -2.027344,2.902344 v 5.757812 h -3.183593 v -8.355468 c 0,-1.113282 -0.04297,-1.90625 -0.0625,-2.511719 h 3.042968 c 0.03906,0.382812 0.140625,1.621093 0.160156,2.230469 0.550782,-1.726563 1.90625,-2.433594 3.46875,-2.433594 2.738282,0 3.507813,1.84375 3.507813,3.871094 v 7.199218 h -3.226563"
     id="path29" />
  <path
     style="fill:#ffffff;fill-opacity:1;fill-rule:nonzero;stroke:none"
     d="M 97.171906,19.84375 V 8.976563 h 3.144534 V 19.84375 Z m 0,-12.226562 V 4.65625 h 3.144534 v 2.960938 h -3.144534"
     id="path31" />
  <path
     style="fill:#ffffff;fill-opacity:1;fill-rule:nonzero;stroke:none"
     d="m 109.55472,19.84375 h -3.71094 L 101.94925,8.976563 h 3.18359 l 1.86328,5.796875 0.75,2.617187 0.73438,-2.617187 1.71875,-5.796875 h 3.125 l -3.76953,10.867187"
     id="path33" />
  <path
     style="fill:#ffffff;fill-opacity:1;fill-rule:nonzero;stroke:none"
     d="m 117.23441,13.171875 h 3.65234 v -0.03906 c 0,-1.886719 -0.69141,-2.453125 -1.78516,-2.453125 -1.03515,0 -1.80468,0.566406 -1.86718,2.492187 z m -3.36719,1.175781 c 0,-4.238281 2.39453,-5.574218 5.29297,-5.574218 3.75,0 4.98828,2.25 4.98828,5.269531 0,0.488281 -0.0391,0.953125 -0.0391,0.953125 h -6.875 v 0.285156 c 0,1.378906 0.48828,2.738282 2.00781,2.738282 0.99219,0 1.51953,-0.445313 1.70312,-1.5 l 3,0.179687 c -0.40625,1.765625 -1.46093,3.347656 -4.80468,3.347656 -3.38672,0 -5.27344,-1.867187 -5.27344,-5.699219"
     id="path35" />
  <path
     style="fill:#ffffff;fill-opacity:1;fill-rule:nonzero;stroke:none"
     d="m 126.28519,19.84375 v -8.292968 c 0,-0.691407 -0.043,-2.332032 -0.082,-2.574219 h 3.04296 c 0.0195,0.179687 0.14063,1.378906 0.1836,2.046875 0.30078,-1.277344 1.19531,-2.25 2.85547,-2.25 0.14453,0 0.44531,0 0.6914,0.03906 v 2.695313 c -0.44531,-0.05859 -0.73047,-0.05859 -1.07422,-0.05859 -1.66406,0 -2.41406,1.136719 -2.41406,2.757813 v 5.636718 h -3.20312"
     id="path37" />
  <path
     style="fill:#ffffff;fill-opacity:1;fill-rule:nonzero;stroke:none"
     d="m 138.46487,20.046875 c -3.26562,0 -4.48047,-1.519531 -4.72656,-3.183593 l 2.87891,-0.324219 c 0.082,0.730469 0.54687,1.480469 1.80859,1.480469 1.07031,0 1.55859,-0.40625 1.55859,-1.074219 0,-0.730469 -0.52734,-1.015625 -2.29296,-1.421875 -2.73438,-0.628906 -3.62891,-1.703125 -3.62891,-3.488282 0,-1.945312 1.5,-3.261718 4.33984,-3.261718 2.59766,0 4.23828,1.296875 4.48438,3.0625 l -2.94141,0.199218 c -0.043,-0.851562 -0.73047,-1.296874 -1.64062,-1.296874 -0.97657,0 -1.36328,0.40625 -1.36328,0.894531 0,0.628906 0.24609,0.972656 2.375,1.457031 2.23046,0.507812 3.85156,1.21875 3.85156,3.40625 0,2.230469 -1.58203,3.550781 -4.70313,3.550781"
     id="path39" />
  <path
     style="fill:#ffffff;fill-opacity:1;fill-rule:nonzero;stroke:none"
     d="M 145.06253,19.84375 V 8.976563 h 3.14062 V 19.84375 Z m 0,-12.226562 V 4.65625 h 3.14062 v 2.960938 h -3.14062"
     id="path41" />
  <path
     style="fill:#ffffff;fill-opacity:1;fill-rule:nonzero;stroke:none"
     d="m 157.90237,14.289063 c 0,-2.679688 -1.13281,-3.347657 -2.16797,-3.347657 -1.33984,0 -2.04687,1.015626 -2.04687,3.386719 0,2.351563 0.64844,3.527344 2.02734,3.527344 1.03125,0 2.1875,-0.75 2.1875,-3.566406 z m 0.1211,5.554687 c -0.0195,-0.140625 -0.1211,-1.398437 -0.1211,-1.804687 h -0.0391 c -0.64844,1.398437 -1.82812,2.007812 -3.48828,2.007812 -2.92188,0 -3.99219,-2.574219 -3.99219,-5.679687 0,-3.425782 1.35547,-5.59375 4.17578,-5.59375 1.51953,0 2.75391,0.585937 3.30469,1.882812 h 0.0195 c 0,-0.28125 -0.0195,-1.074218 -0.0195,-1.824218 V 3.945313 h 3.16016 v 13.503906 c 0,0.75 0.043,2.070313 0.082,2.394531 h -3.08203"
     id="path43" />
  <path
     style="fill:#ffffff;fill-opacity:1;fill-rule:nonzero;stroke:none"
     d="m 167.46097,18.019532 c 1.07422,0 1.84375,-0.8125 1.84375,-2.292969 v -0.808594 h -1.37891 c -1.03125,0 -1.98828,0.382813 -1.98828,1.601563 0,0.789062 0.48828,1.5 1.52344,1.5 z m 6.44531,-0.203126 v 2.148438 c -0.6875,0.0625 -1.01172,0.08203 -1.70313,0.08203 -1.53906,0 -2.61328,-0.691406 -2.63671,-2.007812 -0.50391,1.378906 -1.71875,2.007812 -3.20313,2.007812 -2.41016,0 -3.50781,-1.601562 -3.50781,-3.246093 0,-2.535157 1.80469,-3.507813 5.375,-3.507813 h 1.07422 v -0.910156 c 0,-1.238281 -0.56641,-1.703125 -1.53907,-1.703125 -1.01562,0 -1.5625,0.566406 -1.5625,1.582031 l -2.92187,-0.183594 c 0.18359,-1.945312 1.64453,-3.304687 4.66406,-3.304687 3.06641,0 4.44141,1.378906 4.44141,3.972656 v 4.277344 c 0,0.507812 0.18359,0.792968 0.76953,0.792968 h 0.75"
     id="path45" />
  <path
     style="fill:#ffffff;fill-opacity:1;fill-rule:nonzero;stroke:none"
     d="m 182.51956,14.289063 c 0,-2.679688 -1.13281,-3.347657 -2.16797,-3.347657 -1.33984,0 -2.04687,1.015626 -2.04687,3.386719 0,2.351563 0.64453,3.527344 2.02343,3.527344 1.03516,0 2.19141,-0.75 2.19141,-3.566406 z m 0.12109,5.554687 c -0.0195,-0.140625 -0.12109,-1.398437 -0.12109,-1.804687 h -0.0391 c -0.65235,1.398437 -1.82813,2.007812 -3.48828,2.007812 -2.92188,0 -3.9961,-2.574219 -3.9961,-5.679687 0,-3.425782 1.35938,-5.59375 4.17969,-5.59375 1.51953,0 2.75781,0.585937 3.30469,1.882812 h 0.0196 c 0,-0.28125 -0.0195,-1.074218 -0.0195,-1.824218 V 3.945313 h 3.16406 v 13.503906 c 0,0.75 0.0391,2.070313 0.0781,2.394531 h -3.08204"
     id="path47" />
  <path
     style="fill:#ffffff;fill-opacity:1;fill-rule:nonzero;stroke:none"
     d="m 191.26565,13.171875 h 3.64844 v -0.03906 c 0,-1.886719 -0.6875,-2.453125 -1.78125,-2.453125 -1.03515,0 -1.80859,0.566406 -1.86719,2.492187 z m -3.36718,1.175781 c 0,-4.238281 2.39453,-5.574218 5.29297,-5.574218 3.75,0 4.98828,2.25 4.98828,5.269531 0,0.488281 -0.0391,0.953125 -0.0391,0.953125 h -6.875 v 0.285156 c 0,1.378906 0.48829,2.738282 2.00782,2.738282 0.99218,0 1.51953,-0.445313 1.70312,-1.5 l 3,0.179687 c -0.40625,1.765625 -1.45703,3.347656 -4.80469,3.347656 -3.38671,0 -5.27343,-1.867187 -5.27343,-5.699219"
     id="path49" />
  <path
     style="fill:#ffffff;fill-opacity:1;fill-rule:nonzero;stroke:none"
     d="m 212.77347,14.289063 c 0,-2.679688 -1.13282,-3.347657 -2.16797,-3.347657 -1.33594,0 -2.04688,1.015626 -2.04688,3.386719 0,2.351563 0.64844,3.527344 2.02735,3.527344 1.03515,0 2.1875,-0.75 2.1875,-3.566406 z m 0.125,5.554687 c -0.0195,-0.140625 -0.125,-1.398437 -0.125,-1.804687 h -0.0391 c -0.64843,1.398437 -1.82421,2.007812 -3.48828,2.007812 -2.91797,0 -3.99218,-2.574219 -3.99218,-5.679687 0,-3.425782 1.35546,-5.59375 4.17578,-5.59375 1.51953,0 2.75781,0.585937 3.30468,1.882812 h 0.0234 c 0,-0.28125 -0.0234,-1.074218 -0.0234,-1.824218 V 3.945313 h 3.16407 v 13.503906 c 0,0.75 0.0391,2.070313 0.082,2.394531 h -3.08203"
     id="path51" />
  <path
     style="fill:#ffffff;fill-opacity:1;fill-rule:nonzero;stroke:none"
     d="m 221.51956,13.171875 h 3.65234 v -0.03906 c 0,-1.886719 -0.6914,-2.453125 -1.78125,-2.453125 -1.03515,0 -1.80468,0.566406 -1.87109,2.492187 z m -3.36328,1.175781 c 0,-4.238281 2.39453,-5.574218 5.29297,-5.574218 3.75,0 4.98828,2.25 4.98828,5.269531 0,0.488281 -0.043,0.953125 -0.043,0.953125 h -6.875 v 0.285156 c 0,1.378906 0.49219,2.738282 2.00781,2.738282 0.9961,0 1.52344,-0.445313 1.70313,-1.5 l 3.0039,0.179687 c -0.40625,1.765625 -1.46093,3.347656 -4.80468,3.347656 -3.38672,0 -5.27344,-1.867187 -5.27344,-5.699219"
     id="path53" />
  <path
     style="fill:#ffffff;fill-opacity:1;fill-rule:nonzero;stroke:none"
     d="m 241.58597,13.699219 h -1.80469 v 3.792969 h 1.90625 c 1.5,0 2.51172,-0.488282 2.51172,-1.949219 0,-1.4375 -1.17578,-1.84375 -2.61328,-1.84375 z m -0.38672,-5.71875 h -1.41797 v 3.304687 h 1.44141 c 1.53906,0 2.21093,-0.503906 2.21093,-1.660156 0,-1.199218 -0.71093,-1.644531 -2.23437,-1.644531 z m 0.79297,11.863281 h -5.39453 V 5.671875 h 4.91015 c 3.28125,0 5.16797,1.195313 5.16797,3.585938 0,1.601562 -0.85156,2.65625 -2.55469,3.0625 2.16797,0.285156 3.36328,1.582031 3.36328,3.46875 0,2.859375 -2.30859,4.054687 -5.49218,4.054687"
     id="path55" />
  <path
     style="fill:#ffffff;fill-opacity:1;fill-rule:nonzero;stroke:none"
     d="m 249.66019,19.84375 v -8.292968 c 0,-0.691407 -0.0391,-2.332032 -0.0781,-2.574219 h 3.03906 c 0.0234,0.179687 0.14453,1.378906 0.1836,2.046875 0.30468,-1.277344 1.19922,-2.25 2.85937,-2.25 0.14453,0 0.44531,0 0.69141,0.03906 v 2.695313 c -0.44922,-0.05859 -0.73438,-0.05859 -1.07813,-0.05859 -1.66015,0 -2.41015,1.136719 -2.41015,2.757813 v 5.636718 h -3.20703"
     id="path57" />
  <path
     style="fill:#ffffff;fill-opacity:1;fill-rule:nonzero;stroke:none"
     d="m 261.61722,18.019532 c 1.07422,0 1.84765,-0.8125 1.84765,-2.292969 v -0.808594 h -1.3789 c -1.03516,0 -1.98828,0.382813 -1.98828,1.601563 0,0.789062 0.48828,1.5 1.51953,1.5 z m 6.44922,-0.203126 v 2.148438 c -0.6875,0.0625 -1.01172,0.08203 -1.70313,0.08203 -1.54297,0 -2.61719,-0.691406 -2.63281,-2.007812 -0.50781,1.378906 -1.72656,2.007812 -3.20703,2.007812 -2.41407,0 -3.50782,-1.601562 -3.50782,-3.246093 0,-2.535157 1.80469,-3.507813 5.375,-3.507813 h 1.07422 v -0.910156 c 0,-1.238281 -0.57031,-1.703125 -1.53906,-1.703125 -1.01562,0 -1.56641,0.566406 -1.56641,1.582031 l -2.91796,-0.183594 c 0.18359,-1.945312 1.64453,-3.304687 4.66406,-3.304687 3.0625,0 4.4414,1.378906 4.4414,3.972656 v 4.277344 c 0,0.507812 0.1836,0.792968 0.76954,0.792968 h 0.75"
     id="path59" />
  <path
     style="fill:#ffffff;fill-opacity:1;fill-rule:nonzero;stroke:none"
     d="m 273.55472,20.046875 c -3.26563,0 -4.48047,-1.519531 -4.72266,-3.183593 l 2.87891,-0.324219 c 0.0781,0.730469 0.54687,1.480469 1.80468,1.480469 1.07422,0 1.5586,-0.40625 1.5586,-1.074219 0,-0.730469 -0.52344,-1.015625 -2.28906,-1.421875 -2.73829,-0.628906 -3.62891,-1.703125 -3.62891,-3.488282 0,-1.945312 1.5,-3.261718 4.33594,-3.261718 2.59765,0 4.23828,1.296875 4.48437,3.0625 l -2.9414,0.199218 c -0.0391,-0.851562 -0.72657,-1.296874 -1.64063,-1.296874 -0.97266,0 -1.35937,0.40625 -1.35937,0.894531 0,0.628906 0.24218,0.972656 2.37109,1.457031 2.23437,0.507812 3.85547,1.21875 3.85547,3.40625 0,2.230469 -1.58203,3.550781 -4.70703,3.550781"
     id="path61" />
  <path
     style="fill:#ffffff;fill-opacity:1;fill-rule:nonzero;stroke:none"
     d="M 280.33597,7.980469 V 7.65625 l 2.0664,-2.878906 h 2.85938 v 0.464844 l -2.95703,2.738281 z m -0.1836,11.863281 V 8.976563 h 3.16407 V 19.84375 h -3.16407"
     id="path63" />
  <path
     style="fill:#ffffff;fill-opacity:1;fill-rule:nonzero;stroke:none"
     d="M 285.80862,19.84375 V 3.945313 h 3.16016 V 19.84375 h -3.16016"
     id="path65" />
  <path
     style="fill:#ffffff;fill-opacity:1;fill-rule:nonzero;stroke:none"
     d="M 291.68753,19.84375 V 8.976563 h 3.14844 V 19.84375 Z m 0,-12.226562 V 4.65625 h 3.14844 v 2.960938 h -3.14844"
     id="path67" />
  <path
     style="fill:#ffffff;fill-opacity:1;fill-rule:nonzero;stroke:none"
     d="m 301.18753,18.019532 c 1.07422,0 1.84375,-0.8125 1.84375,-2.292969 v -0.808594 h -1.37891 c -1.03515,0 -1.98828,0.382813 -1.98828,1.601563 0,0.789062 0.48828,1.5 1.52344,1.5 z m 6.44922,-0.203126 v 2.148438 c -0.69141,0.0625 -1.01563,0.08203 -1.70313,0.08203 -1.54297,0 -2.61718,-0.691406 -2.63672,-2.007812 -0.50781,1.378906 -1.72656,2.007812 -3.20312,2.007812 -2.41406,0 -3.50781,-1.601562 -3.50781,-3.246093 0,-2.535157 1.80468,-3.507813 5.37109,-3.507813 h 1.07422 v -0.910156 c 0,-1.238281 -0.56641,-1.703125 -1.54297,-1.703125 -1.01172,0 -1.55859,0.566406 -1.55859,1.582031 l -2.91797,-0.183594 c 0.17969,-1.945312 1.64062,-3.304687 4.66406,-3.304687 3.05859,0 4.4375,1.378906 4.4375,3.972656 v 4.277344 c 0,0.507812 0.18359,0.792968 0.77344,0.792968 h 0.75"
     id="path69" />
</svg>
