<?xml version="1.0" encoding="UTF-8" standalone="no"?>
<svg
   xmlns:dc="http://purl.org/dc/elements/1.1/"
   xmlns:cc="http://creativecommons.org/ns#"
   xmlns:rdf="http://www.w3.org/1999/02/22-rdf-syntax-ns#"
   xmlns:svg="http://www.w3.org/2000/svg"
   xmlns="http://www.w3.org/2000/svg"
   xmlns:sodipodi="http://sodipodi.sourceforge.net/DTD/sodipodi-0.dtd"
   xmlns:inkscape="http://www.inkscape.org/namespaces/inkscape"
   width="244.633pt"
   height="56.3256pt"
   viewBox="0 0 244.633 56.3256"
   version="1.2"
   id="svg37"
   sodipodi:docname="fau.svg"
   inkscape:export-filename="/Users/palazzo/Documents/ensino/tau0006/assets/fau.png"
   inkscape:export-xdpi="95.871147"
   inkscape:export-ydpi="95.871147"
   inkscape:version="1.0 (4035a4f, 2020-05-01)">
  <metadata
     id="metadata41">
    <rdf:RDF>
      <cc:Work
         rdf:about="">
        <dc:format>image/svg+xml</dc:format>
        <dc:type
           rdf:resource="http://purl.org/dc/dcmitype/StillImage" />
        <dc:title />
      </cc:Work>
    </rdf:RDF>
  </metadata>
  <sodipodi:namedview
     inkscape:document-rotation="0"
     pagecolor="#ffffff"
     bordercolor="#666666"
     borderopacity="1"
     objecttolerance="10"
     gridtolerance="10"
     guidetolerance="10"
     inkscape:pageopacity="0"
     inkscape:pageshadow="2"
     inkscape:window-width="1280"
     inkscape:window-height="755"
     id="namedview39"
     showgrid="false"
     inkscape:zoom="2.2474875"
     inkscape:cx="128.97316"
     inkscape:cy="37.058567"
     inkscape:window-x="0"
     inkscape:window-y="23"
     inkscape:window-maximized="0"
     inkscape:current-layer="svg37" />
  <defs
     id="defs16">
    <clipPath
       id="clip1">
      <path
         d="M 0 0 L 147 0 L 147 56.324219 L 0 56.324219 Z M 0 0 "
         id="path10" />
    </clipPath>
    <clipPath
       id="clip2">
      <path
         d="M 153 0 L 244.632812 0 L 244.632812 56.324219 L 153 56.324219 Z M 153 0 "
         id="path13" />
    </clipPath>
  </defs>
  <g
     style="fill:#000000"
     id="surface6680">
    <g
       style="fill:#000000"
       clip-path="url(#clip1)"
       clip-rule="nonzero"
       id="g20">
      <path
         style="stroke:none;fill-rule:nonzero;fill:#000000;fill-opacity:1"
         d="M 0 56.242188 L 146.382812 56.242188 L 146.382812 0.0859375 L 0 0.0859375 Z M 0 56.242188 "
         id="path18" />
    </g>
    <g
       style="fill:#000000"
       clip-path="url(#clip2)"
       clip-rule="nonzero"
       id="g24">
      <path
         style="stroke:none;fill-rule:nonzero;fill:#000000;fill-opacity:1"
         d="M 153.390625 0 L 153.390625 9.390625 L 235.242188 9.390625 L 235.242188 56.324219 L 244.632812 56.324219 L 244.632812 0 Z M 153.390625 0 "
         id="path22" />
    </g>
    <path
       style="stroke:none;fill-rule:nonzero;fill:#000000;fill-opacity:1"
       d="M 156.914062 38.757812 L 154.0625 38.757812 L 154.0625 37.070312 L 156.914062 37.070312 L 156.914062 34.074219 C 156.914062 32.382812 157.160156 29.28125 161.460938 29.28125 C 161.777344 29.28125 162.128906 29.351562 162.65625 29.421875 L 162.65625 31.183594 L 161.070312 31.183594 C 159.027344 31.183594 159.027344 33.015625 159.027344 34.039062 L 159.027344 37.070312 L 162.621094 37.070312 L 162.621094 38.757812 L 159.027344 38.757812 L 159.027344 54.863281 L 156.914062 54.863281 Z M 156.914062 38.757812 "
       id="path26" />
    <path
       style="stroke:none;fill-rule:nonzero;fill:#000000;fill-opacity:1"
       d="M 174.386719 45.769531 C 171.359375 45.875 166.777344 45.523438 166.777344 49.859375 C 166.777344 51.867188 167.796875 53.523438 169.984375 53.523438 C 172.414062 53.523438 174.386719 51.339844 174.386719 49.011719 Z M 174.53125 52.675781 L 174.457031 52.675781 C 173.332031 54.371094 171.605469 55.214844 169.417969 55.214844 C 166.25 55.214844 164.523438 53.066406 164.523438 49.964844 C 164.523438 43.730469 170.792969 44.363281 174.386719 44.078125 L 174.386719 42.601562 C 174.386719 39.992188 173.613281 38.40625 170.792969 38.40625 C 168.855469 38.40625 167.304688 39.359375 167.304688 41.472656 L 165.050781 41.472656 C 165.226562 38.054688 167.871094 36.714844 170.96875 36.714844 C 172.765625 36.714844 176.5 36.894531 176.5 41.4375 L 176.5 50.386719 C 176.5 51.65625 176.5 52.78125 176.714844 54.863281 L 174.53125 54.863281 Z M 174.53125 52.675781 "
       id="path28" />
    <path
       style="stroke:none;fill-rule:nonzero;fill:#000000;fill-opacity:1"
       d="M 192.175781 37.070312 L 192.175781 54.863281 L 190.339844 54.863281 L 190.339844 52.886719 L 190.273438 52.886719 C 189.039062 54.402344 187.769531 55.214844 185.796875 55.214844 C 182.132812 55.214844 181.109375 52.535156 181.109375 49.648438 L 181.109375 37.070312 L 183.226562 37.070312 L 183.226562 49.292969 C 183.226562 49.789062 183.117188 53.523438 186.183594 53.523438 C 189.039062 53.523438 190.058594 50.84375 190.058594 49.613281 L 190.058594 37.070312 Z M 192.175781 37.070312 "
       id="path30" />
    <path
       style="stroke:none;fill-rule:nonzero;fill:#000000;fill-opacity:1"
       d="M 198.71875 54.863281 L 196.605469 54.863281 L 196.605469 37.070312 L 198.71875 37.070312 L 198.71875 39.253906 L 198.789062 39.253906 C 199.8125 37.773438 201.1875 36.714844 203.089844 36.714844 C 207.492188 36.714844 207.953125 39.992188 207.953125 42.320312 L 207.953125 54.863281 L 205.835938 54.863281 L 205.835938 42.421875 C 205.835938 40.34375 205.027344 38.40625 202.5625 38.40625 C 200.660156 38.40625 198.71875 39.710938 198.71875 43.691406 Z M 198.71875 54.863281 "
       id="path32" />
    <path
       style="stroke:none;fill-rule:nonzero;fill:#000000;fill-opacity:1"
       d="M 218.199219 53.523438 C 222.109375 53.523438 222.214844 50.175781 222.214844 46.015625 C 222.214844 41.859375 222.109375 38.410156 218.199219 38.410156 C 214.78125 38.410156 214.359375 43.023438 214.359375 45.699219 C 214.359375 48.519531 214.359375 53.523438 218.199219 53.523438 M 212.105469 54.863281 C 212.207031 54.261719 212.3125 53.699219 212.3125 53.097656 L 212.3125 29.421875 L 214.429688 29.421875 L 214.429688 39.078125 L 214.5 39.148438 C 215.589844 37.457031 217 36.714844 219.007812 36.714844 C 224.789062 36.714844 224.328125 42.777344 224.328125 45.949219 C 224.328125 49.859375 224.011719 55.214844 218.832031 55.214844 C 216.753906 55.214844 215.238281 54.371094 214.359375 52.710938 L 214.289062 52.710938 L 214.289062 54.863281 Z M 212.105469 54.863281 "
       id="path34" />
  </g>
</svg>
